<mxfile host="65bd71144e">
    <diagram name="Pagina-1" id="GpDpxVRStZ5ggvyb2qyT">
        <mxGraphModel dx="1739" dy="1828" grid="1" gridSize="10" guides="1" tooltips="1" connect="1" arrows="1" fold="1" page="1" pageScale="1" pageWidth="827" pageHeight="1169" math="0" shadow="0">
            <root>
                <mxCell id="0"/>
                <mxCell id="1" parent="0"/>
                <mxCell id="0ojtgOkFJzcNSt7BSAhg-29" value="" style="rounded=0;whiteSpace=wrap;html=1;" parent="1" vertex="1">
                    <mxGeometry x="-150" y="-100" width="970" height="570" as="geometry"/>
                </mxCell>
                <mxCell id="0ojtgOkFJzcNSt7BSAhg-1" value="&lt;div style=&quot;text-align: justify;&quot;&gt;&lt;br&gt;&lt;/div&gt;" style="rounded=0;whiteSpace=wrap;html=1;align=right;" parent="1" vertex="1">
                    <mxGeometry x="200" y="110" width="410" height="300" as="geometry"/>
                </mxCell>
                <mxCell id="0ojtgOkFJzcNSt7BSAhg-6" value="" style="rounded=0;whiteSpace=wrap;html=1;dashed=1;dashPattern=8 8;" parent="1" vertex="1">
                    <mxGeometry x="280" y="160" width="320" height="240" as="geometry"/>
                </mxCell>
                <mxCell id="0ojtgOkFJzcNSt7BSAhg-16" style="rounded=0;orthogonalLoop=1;jettySize=auto;html=1;exitX=0.9;exitY=0.2;exitDx=0;exitDy=0;exitPerimeter=0;entryX=0;entryY=0.5;entryDx=0;entryDy=0;" parent="1" source="6" target="0ojtgOkFJzcNSt7BSAhg-13" edge="1">
                    <mxGeometry relative="1" as="geometry">
                        <mxPoint x="475" y="199.60000000000002" as="sourcePoint"/>
                    </mxGeometry>
                </mxCell>
                <mxCell id="0ojtgOkFJzcNSt7BSAhg-17" style="edgeStyle=orthogonalEdgeStyle;rounded=0;orthogonalLoop=1;jettySize=auto;html=1;exitX=0.995;exitY=0.63;exitDx=0;exitDy=0;exitPerimeter=0;entryX=0;entryY=0.5;entryDx=0;entryDy=0;" parent="1" source="6" target="0ojtgOkFJzcNSt7BSAhg-14" edge="1">
                    <mxGeometry relative="1" as="geometry">
                        <mxPoint x="479.75" y="220.24" as="sourcePoint"/>
                    </mxGeometry>
                </mxCell>
                <mxCell id="0ojtgOkFJzcNSt7BSAhg-18" style="rounded=0;orthogonalLoop=1;jettySize=auto;html=1;exitX=0.787;exitY=0.852;exitDx=0;exitDy=0;exitPerimeter=0;entryX=0;entryY=0.5;entryDx=0;entryDy=0;" parent="1" source="6" target="0ojtgOkFJzcNSt7BSAhg-15" edge="1">
                    <mxGeometry relative="1" as="geometry">
                        <mxPoint x="466" y="237.51999999999998" as="sourcePoint"/>
                    </mxGeometry>
                </mxCell>
                <mxCell id="0ojtgOkFJzcNSt7BSAhg-13" value="AppInsights" style="rounded=0;whiteSpace=wrap;html=1;" parent="1" vertex="1">
                    <mxGeometry x="660" y="110" width="120" height="60" as="geometry"/>
                </mxCell>
                <mxCell id="0ojtgOkFJzcNSt7BSAhg-14" value="Cosmos" style="rounded=0;whiteSpace=wrap;html=1;" parent="1" vertex="1">
                    <mxGeometry x="660" y="190" width="120" height="60" as="geometry"/>
                </mxCell>
                <mxCell id="0ojtgOkFJzcNSt7BSAhg-15" value="Key Vault" style="rounded=0;whiteSpace=wrap;html=1;" parent="1" vertex="1">
                    <mxGeometry x="660" y="278" width="120" height="60" as="geometry"/>
                </mxCell>
                <mxCell id="0ojtgOkFJzcNSt7BSAhg-19" value="K8S Cluster (cstar west europe)" style="text;html=1;align=left;verticalAlign=middle;whiteSpace=wrap;rounded=0;" parent="1" vertex="1">
                    <mxGeometry x="210" y="110" width="400" height="30" as="geometry"/>
                </mxCell>
                <mxCell id="0ojtgOkFJzcNSt7BSAhg-23" style="edgeStyle=orthogonalEdgeStyle;rounded=0;orthogonalLoop=1;jettySize=auto;html=1;exitX=1;exitY=0.5;exitDx=0;exitDy=0;" parent="1" source="0ojtgOkFJzcNSt7BSAhg-20" target="0ojtgOkFJzcNSt7BSAhg-1" edge="1">
                    <mxGeometry relative="1" as="geometry"/>
                </mxCell>
                <mxCell id="0ojtgOkFJzcNSt7BSAhg-20" value="API Manager&lt;br&gt;cstar-apim" style="rounded=0;whiteSpace=wrap;html=1;" parent="1" vertex="1">
                    <mxGeometry x="40" y="230" width="120" height="60" as="geometry"/>
                </mxCell>
                <mxCell id="0ojtgOkFJzcNSt7BSAhg-22" style="edgeStyle=orthogonalEdgeStyle;rounded=0;orthogonalLoop=1;jettySize=auto;html=1;exitX=1;exitY=0.5;exitDx=0;exitDy=0;entryX=0;entryY=0.5;entryDx=0;entryDy=0;" parent="1" source="0ojtgOkFJzcNSt7BSAhg-21" target="0ojtgOkFJzcNSt7BSAhg-20" edge="1">
                    <mxGeometry relative="1" as="geometry"/>
                </mxCell>
                <mxCell id="0ojtgOkFJzcNSt7BSAhg-21" value="Application Gateway&lt;br&gt;cstar-app-gw-maz" style="rounded=0;whiteSpace=wrap;html=1;" parent="1" vertex="1">
                    <mxGeometry x="-130" y="230" width="120" height="60" as="geometry"/>
                </mxCell>
                <mxCell id="0ojtgOkFJzcNSt7BSAhg-30" value="Namespace [srtp]" style="text;html=1;align=center;verticalAlign=middle;whiteSpace=wrap;rounded=0;" parent="1" vertex="1">
                    <mxGeometry x="280" y="160" width="320" height="30" as="geometry"/>
                </mxCell>
                <mxCell id="0ojtgOkFJzcNSt7BSAhg-31" value="&lt;b&gt;Azure&lt;br&gt;[cstar]&lt;/b&gt;" style="text;html=1;align=center;verticalAlign=middle;whiteSpace=wrap;rounded=0;" parent="1" vertex="1">
                    <mxGeometry x="-150" y="-90" width="970" height="30" as="geometry"/>
                </mxCell>
                <mxCell id="0ojtgOkFJzcNSt7BSAhg-32" value="" style="image;aspect=fixed;html=1;points=[];align=center;fontSize=12;image=img/lib/azure2/databases/Azure_Cosmos_DB.svg;" parent="1" vertex="1">
                    <mxGeometry x="750" y="192" width="28" height="28" as="geometry"/>
                </mxCell>
                <mxCell id="0ojtgOkFJzcNSt7BSAhg-33" value="" style="image;aspect=fixed;html=1;points=[];align=center;fontSize=12;image=img/lib/azure2/compute/Container_Services_Deprecated.svg;" parent="1" vertex="1">
                    <mxGeometry x="563" y="115" width="41" height="36.18" as="geometry"/>
                </mxCell>
                <mxCell id="0ojtgOkFJzcNSt7BSAhg-34" value="" style="image;aspect=fixed;html=1;points=[];align=center;fontSize=12;image=img/lib/azure2/security/Key_Vaults.svg;" parent="1" vertex="1">
                    <mxGeometry x="750" y="281" width="27" height="27" as="geometry"/>
                </mxCell>
                <mxCell id="0ojtgOkFJzcNSt7BSAhg-35" value="" style="image;aspect=fixed;html=1;points=[];align=center;fontSize=12;image=img/lib/azure2/devops/Application_Insights.svg;" parent="1" vertex="1">
                    <mxGeometry x="755" y="113" width="22" height="31.5" as="geometry"/>
                </mxCell>
                <mxCell id="2" value="" style="sketch=0;html=1;dashed=0;whitespace=wrap;fillColor=#2875E2;strokeColor=#ffffff;points=[[0.005,0.63,0],[0.1,0.2,0],[0.9,0.2,0],[0.5,0,0],[0.995,0.63,0],[0.72,0.99,0],[0.5,1,0],[0.28,0.99,0]];verticalLabelPosition=bottom;align=center;verticalAlign=top;shape=mxgraph.kubernetes.icon;prIcon=ing" parent="1" vertex="1">
                    <mxGeometry x="200" y="242" width="50" height="48" as="geometry"/>
                </mxCell>
                <mxCell id="3" value="mil-auth-service" style="sketch=0;html=1;dashed=0;whitespace=wrap;fillColor=#2875E2;strokeColor=#ffffff;points=[[0.005,0.63,0],[0.1,0.2,0],[0.9,0.2,0],[0.5,0,0],[0.995,0.63,0],[0.72,0.99,0],[0.5,1,0],[0.28,0.99,0]];verticalLabelPosition=bottom;align=center;verticalAlign=top;shape=mxgraph.kubernetes.icon;prIcon=svc" parent="1" vertex="1">
                    <mxGeometry x="310" y="190" width="50" height="48" as="geometry"/>
                </mxCell>
                <mxCell id="4" value="???-service" style="sketch=0;html=1;dashed=0;whitespace=wrap;fillColor=#2875E2;strokeColor=#ffffff;points=[[0.005,0.63,0],[0.1,0.2,0],[0.9,0.2,0],[0.5,0,0],[0.995,0.63,0],[0.72,0.99,0],[0.5,1,0],[0.28,0.99,0]];verticalLabelPosition=bottom;align=center;verticalAlign=top;shape=mxgraph.kubernetes.icon;prIcon=svc" parent="1" vertex="1">
                    <mxGeometry x="310" y="290" width="50" height="48" as="geometry"/>
                </mxCell>
                <mxCell id="5" value="???" style="sketch=0;html=1;dashed=0;whitespace=wrap;fillColor=#2875E2;strokeColor=#ffffff;points=[[0.005,0.63,0],[0.1,0.2,0],[0.9,0.2,0],[0.5,0,0],[0.995,0.63,0],[0.72,0.99,0],[0.5,1,0],[0.28,0.99,0]];verticalLabelPosition=bottom;align=center;verticalAlign=top;shape=mxgraph.kubernetes.icon;prIcon=pod" parent="1" vertex="1">
                    <mxGeometry x="420" y="290" width="50" height="48" as="geometry"/>
                </mxCell>
                <mxCell id="6" value="mil-auth" style="sketch=0;html=1;dashed=0;whitespace=wrap;fillColor=#2875E2;strokeColor=#ffffff;points=[[0.005,0.63,0],[0.1,0.2,0],[0.9,0.2,0],[0.5,0,0],[0.995,0.63,0],[0.72,0.99,0],[0.5,1,0],[0.28,0.99,0]];verticalLabelPosition=bottom;align=center;verticalAlign=top;shape=mxgraph.kubernetes.icon;prIcon=pod" parent="1" vertex="1">
                    <mxGeometry x="414" y="190" width="50" height="48" as="geometry"/>
                </mxCell>
                <mxCell id="9" value="rtp.cstar.pagopa.it" style="sketch=0;aspect=fixed;html=1;points=[];align=center;image;fontSize=12;image=img/lib/mscae/DNS.svg;" vertex="1" parent="1">
                    <mxGeometry x="110" y="15" width="50" height="50" as="geometry"/>
                </mxCell>
                <mxCell id="13" value="" style="group" vertex="1" connectable="0" parent="1">
                    <mxGeometry x="490" y="10" width="120" height="60" as="geometry"/>
                </mxCell>
                <mxCell id="11" value="Blob Storage" style="rounded=0;whiteSpace=wrap;html=1;" vertex="1" parent="13">
                    <mxGeometry width="120" height="60" as="geometry"/>
                </mxCell>
                <mxCell id="12" value="" style="sketch=0;aspect=fixed;html=1;points=[];align=center;image;fontSize=12;image=img/lib/mscae/BlobBlock.svg;" vertex="1" parent="13">
                    <mxGeometry x="92.5" y="4" width="23.5" height="19.74" as="geometry"/>
                </mxCell>
                <mxCell id="17" value="" style="group" vertex="1" connectable="0" parent="1">
                    <mxGeometry x="270" y="10" width="120" height="60" as="geometry"/>
                </mxCell>
                <mxCell id="15" value="Blob Storage" style="rounded=0;whiteSpace=wrap;html=1;" vertex="1" parent="17">
                    <mxGeometry width="120" height="60" as="geometry"/>
                </mxCell>
                <mxCell id="7" value="" style="sketch=0;aspect=fixed;html=1;points=[];align=center;image;fontSize=12;image=img/lib/mscae/Content_Delivery_Network.svg;" vertex="1" parent="17">
                    <mxGeometry x="85" y="5.0000000000000036" width="30" height="13.8" as="geometry"/>
                </mxCell>
                <mxCell id="18" style="edgeStyle=none;html=1;exitX=1;exitY=0.5;exitDx=0;exitDy=0;entryX=0;entryY=0.5;entryDx=0;entryDy=0;" edge="1" parent="1" source="15" target="11">
                    <mxGeometry relative="1" as="geometry"/>
                </mxCell>
                <mxCell id="19" style="edgeStyle=none;html=1;exitX=0;exitY=0.5;exitDx=0;exitDy=0;startArrow=classic;startFill=1;endArrow=none;endFill=0;" edge="1" parent="1" source="15" target="9">
                    <mxGeometry relative="1" as="geometry"/>
                </mxCell>
            </root>
        </mxGraphModel>
    </diagram>
</mxfile>